{"title":"Mar Dala.mkv 1280x544","uid":6970043,"size":157400430,"categoryP":"video","categoryS":"music_videos","magnet":"?xt=urn:btih:e5dd784ba7d5c204a64884b3770c72d607f2ea47&amp;dn=Mar+Dala.mkv+1280x544&amp;tr=udp%3A%2F%2Ftracker.openbittorrent.com%3A80&amp;tr=udp%3A%2F%2Fopen.demonii.com%3A1337&amp;tr=udp%3A%2F%2Ftracker.coppersurfer.tk%3A6969&amp;tr=udp%3A%2F%2Fexodus.desync.com%3A6969","seeders":1,"leechers":0,"uploader":"9xyz","files":1,"time":1327019190,"description":"SONGS\\Mar Dala.mkv                       : Devdas\nFormat                                   : Matroska\nFormat version                           : Version 1\nFile size                                : 150 MiB\nDuration                                 : 4mn 34s\nOverall bit rate                         : 4 587 Kbps\n\nVideo\nID                                       : 1\nFormat                                   : MPEG-4 Visual\nFormat profile                           : Advanced Simple@L5\nFormat settings, BVOP                    : Yes\nFormat settings, Matrix                  : Default (H.263)\nCodec ID                                 : V_MPEG4/ISO/ASP\nCodec ID/Info                            : Advanced Simple Profile\nDuration                                 : 4mn 34s\nBit rate                                 : 3 856 Kbps\nWidth                                    : 1 280 pixels\nHeight                                   : 544 pixels\nDisplay aspect ratio                     : 2.35:1\nFrame rate                               : 29.970 fps\nColor space                              : YUV\nChroma subsampling                       : 4:2:0\nBit depth                                : 8 bits\nScan type                                : Progressive\nCompression mode                         : Lossy\nBits/(Pixel*Frame)                       : 0.185\nStream size                              : 126 MiB (84%)\nWriting library                          : XviD 1.2.0.dev47 (UTC 2006-11-01)\nLanguage                                 : English\nDefault                                  : Yes\n\nAudio\nID                                       : 2\nFormat                                   : AC-3\nFormat/Info                              : Audio Coding 3\nMode extension                           : CM (complete main)\nCodec ID                                 : A_AC3\nDuration                                 : 4mn 34s\nBit rate mode                            : Constant\nBit rate                                 : 640 Kbps\nChannel(s)                               : 6 channels\nChannel positions                        : Front: L C R, Side: L R, LFE\nSampling rate                            : 48.0 KHz\nBit depth                                : 16 bits\nCompression mode                         : Lossy\nStream size                              : 20.9 MiB (14%)\nDefault                                  : Yes","torrent":{"xt":"urn:btih:e5dd784ba7d5c204a64884b3770c72d607f2ea47","amp;dn":"Mar+Dala.mkv+1280x544","amp;tr":["udp%3A%2F%2Ftracker.openbittorrent.com%3A80","udp%3A%2F%2Fopen.demonii.com%3A1337","udp%3A%2F%2Ftracker.coppersurfer.tk%3A6969","udp%3A%2F%2Fexodus.desync.com%3A6969"],"infoHash":"e5dd784ba7d5c204a64884b3770c72d607f2ea47","infoHashBuffer":{"type":"Buffer","data":[229,221,120,75,167,213,194,4,166,72,132,179,119,12,114,214,7,242,234,71]},"announce":[],"urlList":[]}}